# xmcd
#
# Track frame offsets: 
#        150
#        24300
#        47702
#        72685
#        94917
#        115167
#        132530
#        141922
#
# Disc length: 2242 seconds
#
# Revision: 3
# Processed by: cddbd v1.5.2PL0 Copyright (c) Steve Scherf et al.
# Submitted via: ExactAudioCopy v1.0b6
#
DISCID=7708c008
DTITLE=Don Marsh Orchestra - Beside Still Waters Volume 4 (1991)
DYEAR=1991
DGENRE=Instrumental Praise
TTITLE0=Thy Loving Kindness • Give Thanks
TTITLE1=We Have Come Into His House • In Moments Like These • Holy Gro
TTITLE1=und
TTITLE2=His Name Is Wonderful • Emmanuel • Praise The Name Of Jesus • 
TTITLE2=How Majestic Is Your Name
TTITLE3=How Kind and Gracious Is the Lord • Surely Goodness and Mercy • I 
TTITLE3=Will Sing Of The Mercies Of The Lord
TTITLE4=Be Still And Know (That I Am God) • Bless The Lord, O My Soul 
TTITLE4=• He Is Lord • Great Is The Lord
TTITLE5=We Worship and Adore You • Lord, Be Glorified • Let There Be Glo
TTITLE5=ry and Honor and Praises • For He Alone Is Worthy
TTITLE6=Through The Blood
TTITLE7=We Will Glorify • Thou Art Worthy • Majesty
EXTD=YEAR: 1991 ID3G: 33
EXTT0=
EXTT1=
EXTT2=
EXTT3=
EXTT4=
EXTT5=
EXTT6=
EXTT7=
PLAYORDER=
